<svg version="1.1" xmlns="http://www.w3.org/2000/svg" viewBox="0 0 250 250"><desc>Created with Snap</desc><defs></defs><g transform="matrix(0.0303,0,0,0.0303,50.6305,133.6914)"><g transform="matrix(19.6668,0,0,19.6668,-1475.3693,-4220.6193)">
<g id="gSkyhlz3h221c">
	<g>
		<g>
			<path d="M387.88501,83.59349V316.4075H12.115V83.59349H387.88501 M391.96945,79.50903H8.03054v240.98294h383.9389V79.50903
				L391.96945,79.50903z" fill="#00203f" style=""></path>
			<path d="M38.30037,67.71037l353.83911,50.25497l-30.43997,214.32426L7.86052,282.03564L38.30037,67.71037 M36.56565,65.4009
				L5.55142,283.77075l357.88281,50.82834l31.01434-218.36884L36.56565,65.4009L36.56565,65.4009z" fill="#00203f" style=""></path>
			<path d="M361.69949,67.71037l30.43997,214.32527L38.30037,332.28961L7.86052,117.96535L361.69949,67.71037 M363.43423,65.4009
				L5.55142,116.23025l31.01422,218.36884l357.88293-50.82834L363.43423,65.4009L363.43423,65.4009z" fill="#00203f" style=""></path>
		</g>
		<rect x="47.64159" y="114.85448" width="304.71683" height="170.29103" fill="#00203f" style=""></rect>
	</g>
</g>


<desc>Created with Snap</desc><defs></defs></g><g><g transform="matrix(0.5,0,0,-0.5,0,0)"><path d="M-211 608L-207 590Q-207 567 -224 549Q-240 532 -260 532Q-303 532 -303 592Q-303 713 -61 858Q22 907 73 926Q125 945 179 969Q234 993 272 1005Q311 1018 322 1022Q365 1202 388 1396Q411 1590 423 1704Q436 1819 451 1933Q457 1982 510 1982Q532 1982 539 1974Q547 1966 545 1948Q521 1661 422 1049Q730 1128 1202 1149Q1269 1657 1283 1714Q1327 1892 1331 1954Q1337 1974 1354 1988Q1372 2003 1391 2003Q1416 2003 1425 1968Q1422 1913 1406 1844L1381 1736Q1363 1658 1338 1468Q1313 1279 1296 1151L1763 1165Q1798 1156 1798 1130Q1798 1112 1783 1094Q1769 1077 1749 1071Q1633 1066 1517 1064Q1401 1062 1282 1059Q1264 913 1229 737Q1194 561 1162 387Q1131 214 1124 35Q1121 10 1102 -7Q1084 -23 1065 -23Q1034 -23 1030 20Q1037 205 1069 380Q1101 556 1122 661Q1143 767 1161 874L1190 1055Q715 1036 397 950Q335 699 264 454Q194 209 135 -29Q114 -70 78 -70Q47 -70 43 -29Q99 201 167 439Q235 678 297 922Q35 835 -119 713Q-127 707 -142 696Q-211 645 -211 612Q-211 610 -211 608ZM1610 0Q1493 0 1493 147Q1493 294 1602 507Q1712 721 1860 876Q2008 1032 2101 1032Q2195 1032 2208 950Q2212 925 2214 897Q2223 903 2236 903Q2283 903 2283 858L2283 850Q2283 847 2258 760Q2233 673 2201 470Q2169 267 2169 123Q2178 117 2190 109Q2202 102 2220 86Q2238 71 2238 50Q2238 29 2225 12Q2212 -4 2188 -4Q2139 -4 2099 46Q2060 96 2060 154Q2060 279 2128 584Q2043 406 1908 241Q1773 76 1721 38Q1670 0 1610 0ZM1595 143Q1595 106 1626 106Q1648 106 1663 121Q1870 299 2034 614Q2127 794 2132 821Q2138 848 2138 867Q2138 886 2128 903Q2118 920 2100 920Q2082 920 2047 901Q1970 859 1857 722Q1745 585 1670 424Q1595 263 1595 143ZM3078 810Q3078 909 3024 909Q2952 909 2749 496Q2657 309 2620 213Q2584 118 2566 79Q2548 40 2530 20Q2513 0 2491 0Q2470 0 2466 10Q2462 21 2462 48Q2462 76 2542 520Q2623 965 2635 988Q2648 1011 2658 1017Q2668 1024 2694 1024Q2720 1024 2734 1004Q2749 984 2749 968Q2749 953 2745 938Q2738 911 2724 871Q2676 734 2632 483L2611 362Q2634 410 2663 477Q2692 545 2749 671Q2806 797 2876 896Q2966 1026 3044 1026Q3181 1026 3181 805Q3181 722 3157 598Q3134 474 3105 327Q3077 180 3074 84L3062 29Q3062 7 3055 -3Q3049 -12 3016 -12Q2984 -12 2969 0Q2955 12 2960 43L3060 641Q3078 752 3078 810ZM3969 942L4067 1372Q4077 1418 4115 1609Q4154 1801 4172 1876L4176 1901Q4176 1927 4193 1945Q4211 1964 4230 1964Q4274 1964 4274 1917L4274 1908Q4274 1859 4203 1535Q4133 1211 4112 1079Q4091 947 4032 710Q3974 473 3959 390Q3944 307 3930 249Q3916 192 3916 135Q3916 78 3934 20Q3931 -4 3912 -21Q3893 -37 3877 -37Q3851 -37 3832 24Q3813 86 3813 127Q3813 169 3825 225Q3784 101 3719 41Q3654 -18 3548 -18Q3443 -18 3398 68Q3354 155 3354 238Q3354 544 3470 756Q3524 854 3565 901Q3607 948 3672 991Q3737 1034 3832 1034Q3927 1034 3969 942ZM3895 620Q3911 702 3915 724Q3920 747 3920 798Q3920 850 3890 899Q3860 948 3805 948Q3707 948 3625 824Q3544 701 3495 536Q3447 372 3447 259Q3447 146 3511 98Q3532 82 3567 82Q3638 82 3719 203Q3800 324 3840 431Q3880 539 3895 620ZM4862 894Q4885 985 4902 1009Q4919 1034 4952 1034Q4985 1034 4985 1010Q4985 986 4895 591Q4806 197 4774 51Q4814 86 4845 117Q4876 148 4900 169Q4924 190 4942 190Q4980 190 4980 156Q4980 135 4964 115Q4852 15 4751 -61Q4665 -534 4587 -684Q4566 -725 4532 -762Q4451 -854 4347 -854Q4243 -854 4186 -778Q4129 -701 4129 -629Q4129 -556 4147 -503Q4165 -450 4196 -406Q4227 -362 4269 -325Q4311 -287 4359 -252Q4407 -217 4458 -183Q4510 -149 4561 -111L4661 -35Q4672 9 4737 219Q4802 429 4813 469Q4727 218 4602 78Q4518 -16 4442 -16Q4366 -16 4317 45Q4268 106 4268 217Q4268 389 4366 759Q4415 943 4415 959Q4411 988 4419 999Q4448 1038 4487 1038Q4526 1038 4526 998Q4526 961 4450 653Q4374 345 4374 240Q4374 136 4399 109Q4425 82 4462 82Q4541 82 4628 213Q4715 344 4777 574Q4840 804 4862 894ZM4610 -287L4636 -154Q4554 -217 4480 -267Q4407 -317 4352 -367Q4233 -475 4233 -608Q4233 -692 4288 -738Q4311 -756 4349 -756Q4388 -756 4420 -730Q4453 -704 4479 -663Q4505 -622 4525 -570Q4546 -518 4562 -466Q4578 -414 4589 -367Q4601 -319 4610 -287ZM5058 -82Q5062 -50 5072 0Q5043 6 5014 12Q4890 37 4886 78Q4885 83 4885 94Q4885 106 4896 119Q4908 133 4918 133Q4929 133 4940 130Q4954 125 4987 109Q5020 94 5093 94L5146 317Q5177 475 5215 634Q5254 794 5292 958L5230 961Q5199 961 5199 995Q5199 1044 5310 1044Q5355 1235 5390 1459Q5425 1683 5480 1858Q5443 1842 5412 1815Q5394 1778 5359 1778Q5350 1778 5337 1786Q5324 1795 5324 1819Q5324 1866 5384 1902Q5444 1939 5521 1954Q5534 1975 5552 1975Q5571 1975 5584 1958Q5774 1952 5889 1827Q6004 1703 6004 1495Q6004 1325 5878 1181Q5753 1037 5597 1016Q5771 1005 5902 863Q6033 722 6033 570Q6033 278 5809 131Q5586 -16 5204 -16L5161 -14Q5154 -43 5154 -63Q5149 -89 5131 -106Q5114 -123 5098 -123Q5063 -123 5058 -82ZM5179 80Q5206 76 5259 76Q5586 76 5762 207Q5939 338 5939 557Q5939 710 5799 830Q5659 950 5488 950Q5444 950 5380 954Q5283 533 5258 418Q5234 303 5227 276Q5220 250 5212 218L5195 150Q5186 114 5179 80ZM5904 1494Q5904 1678 5809 1772Q5715 1866 5564 1870Q5514 1705 5467 1423Q5421 1142 5400 1047Q5611 1061 5757 1185Q5904 1310 5904 1494ZM6187 4L6233 248Q6269 435 6282 513Q6295 592 6311 686Q6328 781 6379 958Q6377 963 6377 967L6377 977Q6377 1025 6414 1046Q6425 1053 6437 1053Q6480 1053 6480 991Q6480 955 6451 861Q6422 768 6406 688Q6420 711 6440 746Q6461 781 6505 848Q6550 915 6617 975Q6685 1036 6755 1036Q6826 1036 6863 998Q6877 985 6877 965Q6877 945 6859 929Q6841 913 6822 913Q6803 913 6785 923Q6767 934 6745 934Q6723 934 6675 898Q6484 759 6360 347Q6327 237 6320 195Q6313 154 6308 128Q6278 -33 6216 -33Q6187 -33 6187 4ZM6982 0Q6865 0 6865 147Q6865 294 6974 507Q7084 721 7232 876Q7380 1032 7473 1032Q7567 1032 7580 950Q7584 925 7586 897Q7595 903 7608 903Q7655 903 7655 858L7655 850Q7655 847 7630 760Q7605 673 7573 470Q7541 267 7541 123Q7550 117 7562 109Q7574 102 7592 86Q7610 71 7610 50Q7610 29 7597 12Q7584 -4 7560 -4Q7511 -4 7471 46Q7432 96 7432 154Q7432 279 7500 584Q7415 406 7280 241Q7145 76 7093 38Q7042 0 6982 0ZM6967 143Q6967 106 6998 106Q7020 106 7035 121Q7242 299 7406 614Q7499 794 7504 821Q7510 848 7510 867Q7510 886 7500 903Q7490 920 7472 920Q7454 920 7419 901Q7342 859 7229 722Q7117 585 7042 424Q6967 263 6967 143ZM8450 810Q8450 909 8396 909Q8324 909 8121 496Q8029 309 7992 213Q7956 118 7938 79Q7920 40 7902 20Q7885 0 7863 0Q7842 0 7838 10Q7834 21 7834 48Q7834 76 7914 520Q7995 965 8007 988Q8020 1011 8030 1017Q8040 1024 8066 1024Q8092 1024 8106 1004Q8121 984 8121 968Q8121 953 8117 938Q8110 911 8096 871Q8048 734 8004 483L7983 362Q8006 410 8035 477Q8064 545 8121 671Q8178 797 8248 896Q8338 1026 8416 1026Q8553 1026 8553 805Q8553 722 8529 598Q8506 474 8477 327Q8449 180 8446 84L8434 29Q8434 7 8427 -3Q8421 -12 8388 -12Q8356 -12 8341 0Q8327 12 8332 43L8432 641Q8450 752 8450 810ZM9341 942L9439 1372Q9449 1418 9487 1609Q9526 1801 9544 1876L9548 1901Q9548 1927 9565 1945Q9583 1964 9602 1964Q9646 1964 9646 1917L9646 1908Q9646 1859 9575 1535Q9505 1211 9484 1079Q9463 947 9404 710Q9346 473 9331 390Q9316 307 9302 249Q9288 192 9288 135Q9288 78 9306 20Q9303 -4 9284 -21Q9265 -37 9249 -37Q9223 -37 9204 24Q9185 86 9185 127Q9185 169 9197 225Q9156 101 9091 41Q9026 -18 8920 -18Q8815 -18 8770 68Q8726 155 8726 238Q8726 544 8842 756Q8896 854 8937 901Q8979 948 9044 991Q9109 1034 9204 1034Q9299 1034 9341 942ZM9267 620Q9283 702 9287 724Q9292 747 9292 798Q9292 850 9262 899Q9232 948 9177 948Q9079 948 8997 824Q8916 701 8867 536Q8819 372 8819 259Q8819 146 8883 98Q8904 82 8939 82Q9010 82 9091 203Q9172 324 9212 431Q9252 539 9267 620ZM9951 956Q9851 956 9851 840Q9851 763 9887 681Q9923 599 9948 550Q10045 357 10045 254Q10045 152 9983 80Q9921 8 9804 -6L9791 -6Q9678 -6 9627 133Q9625 138 9625 142L9625 152Q9625 173 9638 186Q9651 200 9666 203L9677 203Q9697 203 9709 187Q9722 171 9733 151Q9744 132 9757 116Q9770 100 9802 100Q9870 100 9910 142Q9951 185 9951 237Q9951 289 9936 334Q9911 411 9850 526Q9748 715 9748 820Q9748 925 9801 992Q9854 1059 9951 1059Q10011 1059 10054 1034Q10135 987 10135 928Q10135 870 10086 870Q10068 870 10056 883Q10045 897 10032 913Q9997 956 9951 956Z" fill="#adefd1" style=""></path></g></g></g></svg>